<?xml version="1.0" encoding="UTF-8"?>
<svg width="512px" height="512px" viewBox="0 0 512 512" version="1.1" xmlns="http://www.w3.org/2000/svg" xmlns:xlink="http://www.w3.org/1999/xlink">
    <!-- Generator: Sketch 47.1 (45422) - http://www.bohemiancoding.com/sketch -->
    <title>Desktop Copy</title>
    <desc>Created with Sketch.</desc>
    <defs>
        <polygon id="path-1" points="0 653.754244 714.982878 653.754244 714.982878 0 0 0"></polygon>
        <polygon id="path-3" points="1.88630528 490.161478 489.909951 490.161478 489.909951 1.63477816 1.88630528 1.63477816"></polygon>
    </defs>
    <g id="Page-1" stroke="none" stroke-width="1" fill="none" fill-rule="evenodd">
        <g id="Desktop-Copy">
            <g id="g5461" transform="translate(270.500000, 289.298105) scale(1, -1) translate(-270.500000, -289.298105) translate(-87.250000, -37.951895)">
                <g id="g4487" transform="translate(0.233137, 0.325248)">
                    <g id="g4489-Clipped">
                        <mask id="mask-2" fill="white">
                            <use xlink:href="#path-1"></use>
                        </mask>
                        <g id="path18"></g>
                        <g id="g4489" mask="url(#mask-2)">
                            <g transform="translate(99.266726, 111.117238)" id="g4491">
                                <g transform="translate(245.914164, 245.905484) scale(1, -1) translate(-245.914164, -245.905484) translate(0.016036, 0.007356)">
                                    <g id="g4493">
                                        <g id="g4495-Clipped">
                                            <mask id="mask-4" fill="white">
                                                <use xlink:href="#path-3"></use>
                                            </mask>
                                            <g id="path28"></g>
                                            <g id="g4495" mask="url(#mask-4)">
                                                <g id="g4497" transform="translate(75.304080, 71.010343)" fill="#F06C17">
                                                    <path d="M0,35.5515366 C0,16.1907623 15.420479,0.497721512 34.449439,0.497721512 L306.368329,0.497721512 C325.397289,0.497721512 340.817768,16.1907623 340.817768,35.5515366 L340.817768,312.192856 C340.817768,331.55363 325.397289,347.246671 306.368329,347.246671 L34.449439,347.246671 C15.420479,347.246671 0,331.55363 0,312.192856 L0,35.5515366 L0,35.5515366 Z" id="path4499"></path>
                                                </g>
                                                <g id="g4501" transform="translate(130.170470, 118.965218)" fill="#FFFFFF">
                                                    <path d="M115.542494,115.542494 C109.166918,117.725951 101.007841,119.55093 91.0563731,121.008543 C81.244149,122.472081 72.1873951,123.200887 63.9009244,123.200887 C57.0128142,123.200887 50.7675943,122.892774 45.1534141,122.285435 C39.6755148,121.793639 34.1294751,120.830785 28.5123324,119.373172 C23.0344331,117.788166 18.3801444,115.782467 14.5553916,113.347187 C10.8550692,110.914869 7.86281484,107.626352 5.56381548,103.496448 C3.27074137,99.3546943 2.12420431,94.490059 2.12420431,88.8966173 L2.12420431,39.6221875 C2.12420431,33.4243697 3.46331219,27.9523957 6.13856532,23.2003403 C8.81678108,18.4601354 12.1971397,14.7509251 16.2737159,12.0727093 C20.3562173,9.4004188 25.2623294,7.2139993 31.0009399,5.50160029 C36.7395504,3.67662141 42.2204123,2.5241591 47.4524135,2.03532547 C52.808845,1.43094935 58.4200625,1.12579866 64.2801408,1.12579866 C81.8781514,1.12579866 98.7088414,2.40565398 114.775173,4.95943936 L114.775173,26.4858948 C99.603555,23.0847978 82.7699025,21.3812866 64.2801408,21.3812866 C42.732947,21.3812866 31.9578688,27.3420943 31.9578688,39.2637095 L31.9578688,86.8879555 C31.9578688,92.9731935 34.959011,97.1623495 40.9464823,99.4820873 C47.0672718,101.787012 55.7359215,102.945399 66.9613192,102.945399 C73.2095017,102.945399 79.9050411,102.035873 87.0449747,100.210894 L87.0449747,72.6554903 L66.771711,72.6554903 L66.771711,54.0442609 L115.542494,54.0442609 L115.542494,115.542494 L115.542494,115.542494 Z" id="path4503"></path>
                                                </g>
                                                <g id="g4505" transform="translate(254.328879, 123.192000)" fill="#FFFFFF">
                                                    <polygon id="path4507" points="106.65461 20.7383963 68.5907646 20.7383963 68.5907646 118.916927 38.7541375 118.916927 38.7541375 20.7383963 0.50068414 20.7383963 0.50068414 0.491796256 106.65461 0.491796256"></polygon>
                                                </g>
                                                <g id="g4509" transform="translate(137.203749, 257.378312)" fill="#39393A">
                                                    <path d="M74.0657013,56.2899329 L74.0657013,79.7717229 C74.0657013,89.5158065 71.1178863,96.4572441 65.2074434,100.59011 C59.3977298,104.628172 49.9943483,106.642759 37.0002617,106.642759 C23.3188454,106.642759 13.8680619,104.530405 8.64791128,100.29681 C3.43368591,95.9624852 0.823610598,89.121777 0.823610598,79.7717229 L0.823610598,1.80127785 L22.3826549,1.80127785 L22.3826549,40.789463 C23.6625102,37.5364974 26.0266874,35.3204516 29.4692612,34.1413256 C33.0184896,32.8614703 38.3808464,32.2215427 45.568182,32.2215427 C51.6652706,32.2215427 56.6424857,32.7133389 60.4820516,33.6969314 C64.3216176,34.680524 67.2249931,36.3070068 69.1951407,38.5734172 C71.1652884,40.7361357 72.4451437,43.1477149 73.0317441,45.8081549 C73.7220364,48.4656323 74.0657013,51.9615334 74.0657013,56.2899329 M52.5096196,82.5714064 L52.5096196,56.1447642 C52.5096196,51.5171392 51.6237938,48.610801 49.8521422,47.4316751 C48.18122,46.1518198 43.9416992,45.5118921 37.1513557,45.5118921 C31.0453793,45.5118921 27.057682,46.2969885 25.1882637,47.8731067 C23.3188454,49.4492248 22.3826549,52.2044689 22.3826549,56.1447642 L22.3826549,82.5714064 C22.3826549,86.8079645 23.2684807,89.6669006 25.0430949,91.1422893 C26.9125132,92.5199114 30.9979773,93.2072411 37.2965245,93.2072411 C43.5980344,93.2072411 47.6834985,92.5199114 49.5558794,91.1422893 C51.526027,89.6669006 52.5096196,86.8079645 52.5096196,82.5714064" id="path4511"></path>
                                                </g>
                                                <path d="M250.659071,279.449891 L229.100027,279.449891 L229.100027,262.023713 L250.659071,262.023713 L250.659071,279.449891 L250.659071,279.449891 Z M250.659071,359.337156 L229.100027,359.337156 L229.100027,287.866717 L250.659071,287.866717 L250.659071,359.337156 L250.659071,359.337156 Z" id="path4513" fill="#39393A"></path>
                                                <polygon id="path4515" fill="#39393A" points="292.361024 362.545682 270.80198 362.545682 270.80198 259.17959 292.361024 259.17959"></polygon>
                                                <g id="g4517" transform="translate(303.490136, 268.479575)" fill="#39393A">
                                                    <path d="M56.289933,94.8040976 C52.1541042,95.2988565 48.1664068,95.541792 44.3327661,95.541792 C40.9820338,95.541792 38.0282936,95.3966232 35.4656204,95.103323 C33.0096017,94.9018643 30.3995264,94.362666 27.6413197,93.4768402 C24.986805,92.4932477 22.7677966,91.2637571 20.996145,89.7854057 C19.3222601,88.2092876 17.8972361,86.0465691 16.7151475,83.2883624 C15.6308256,80.4294263 15.0916273,77.0905445 15.0916273,73.2480159 L15.0916273,35.8833509 L0.619189262,35.8833509 L0.619189262,22.5959641 L15.0916273,22.5959641 L15.0916273,1.9227456 L36.6506716,1.9227456 L36.6506716,22.5959641 L56.289933,22.5959641 L56.289933,35.8833509 L36.6506716,35.8833509 L36.6506716,69.5565814 C36.6506716,74.4775065 37.3854034,77.8252762 38.8667174,79.5969278 C40.3421062,81.2737753 43.5891465,82.1062738 48.610801,82.1062738 C50.2846859,82.1062738 52.8473592,81.8603756 56.289933,81.371542 L56.289933,94.8040976 L56.289933,94.8040976 Z" id="path4519"></path>
                                                </g>
                                                <g id="g4521" transform="translate(196.916406, 1.145648)" fill="#ED6C18">
                                                    <path d="M29.6262805,14.8131402 C29.6262805,6.90292336 23.2270039,0.488833628 15.3345628,0.488833628 C7.44212166,0.488833628 1.04284507,6.90292336 1.04284507,14.8131402 L1.04284507,60.4820516 L29.6262805,60.4820516 L29.6262805,14.8131402 L29.6262805,14.8131402 Z" id="path4523"></path>
                                                </g>
                                                <g id="g4525" transform="translate(264.460770, 1.145648)" fill="#ED6C18">
                                                    <path d="M29.6262805,14.8131402 C29.6262805,6.90292336 23.2270039,0.488833628 15.3345628,0.488833628 C7.44212166,0.488833628 1.04284507,6.90292336 1.04284507,14.8131402 L1.04284507,60.4820516 L29.6262805,60.4820516 L29.6262805,14.8131402 L29.6262805,14.8131402 Z" id="path4527"></path>
                                                </g>
                                                <g id="g4529" transform="translate(331.999506, 1.145648)" fill="#ED6C18">
                                                    <path d="M29.6262805,14.8131402 C29.6262805,6.90292336 23.2270039,0.488833628 15.3345628,0.488833628 C7.44212166,0.488833628 1.04284507,6.90292336 1.04284507,14.8131402 L1.04284507,60.4820516 L29.6262805,60.4820516 L29.6262805,14.8131402 L29.6262805,14.8131402 Z" id="path4531"></path>
                                                </g>
                                                <g id="g4533" transform="translate(129.374708, 1.145648)" fill="#ED6C18">
                                                    <path d="M29.6262805,14.8131402 C29.6262805,6.90292336 23.2270039,0.488833628 15.3345628,0.488833628 C7.44212166,0.488833628 1.04284507,6.90292336 1.04284507,14.8131402 L1.04284507,60.4820516 L29.6262805,60.4820516 L29.6262805,14.8131402 L29.6262805,14.8131402 Z" id="path4535"></path>
                                                </g>
                                                <g id="g4537" transform="translate(1.397472, 130.665229)" fill="#ED6C18">
                                                    <path d="M14.8131403,0 C6.90292336,0 0.488833628,6.39927659 0.488833628,14.2917177 C0.488833628,22.1841588 6.90292336,28.5834354 14.8131403,28.5834354 L60.4820516,28.5834354 L60.4820516,0 L14.8131403,0 L14.8131403,0 Z" id="path4539"></path>
                                                </g>
                                                <g id="g4541" transform="translate(1.397472, 198.203964)" fill="#ED6C18">
                                                    <path d="M14.8131403,0 C6.90292336,0 0.488833628,6.39927659 0.488833628,14.2917177 C0.488833628,22.1841588 6.90292336,28.5834354 14.8131403,28.5834354 L60.4820516,28.5834354 L60.4820516,0 L14.8131403,0 L14.8131403,0 Z" id="path4543"></path>
                                                </g>
                                                <g id="g4545" transform="translate(1.397472, 265.748329)" fill="#ED6C18">
                                                    <path d="M14.8131403,0 C6.90292336,0 0.488833628,6.39927659 0.488833628,14.2917177 C0.488833628,22.1841588 6.90292336,28.5834354 14.8131403,28.5834354 L60.4820516,28.5834354 L60.4820516,0 L14.8131403,0 L14.8131403,0 Z" id="path4547"></path>
                                                </g>
                                                <g id="g4549" transform="translate(1.397472, 333.292693)" fill="#ED6C18">
                                                    <path d="M14.8131403,0 C6.90292336,0 0.488833628,6.39927659 0.488833628,14.2917177 C0.488833628,22.1841588 6.90292336,28.5834354 14.8131403,28.5834354 L60.4820516,28.5834354 L60.4820516,0 L14.8131403,0 L14.8131403,0 Z" id="path4551"></path>
                                                </g>
                                                <g id="g4553" transform="translate(130.416368, 428.435419)" fill="#ED6C18">
                                                    <path d="M0,47.4020488 C0,55.3122657 6.39927659,61.7263554 14.2917177,61.7263554 C22.1841588,61.7263554 28.5834354,55.3122657 28.5834354,47.4020488 L28.5834354,1.73313741 L0,1.73313741 L0,47.4020488 L0,47.4020488 Z" id="path4555"></path>
                                                </g>
                                                <g id="g4557" transform="translate(197.958066, 428.435419)" fill="#ED6C18">
                                                    <path d="M0,47.4020488 C0,55.3122657 6.39927659,61.7263554 14.2917177,61.7263554 C22.1841588,61.7263554 28.5834354,55.3122657 28.5834354,47.4020488 L28.5834354,1.73313741 L0,1.73313741 L0,47.4020488 L0,47.4020488 Z" id="path4559"></path>
                                                </g>
                                                <g id="g4561" transform="translate(265.502430, 428.435419)" fill="#ED6C18">
                                                    <path d="M0,47.4020488 C0,55.3122657 6.39927659,61.7263554 14.2917177,61.7263554 C22.1841588,61.7263554 28.5834354,55.3122657 28.5834354,47.4020488 L28.5834354,1.73313741 L0,1.73313741 L0,47.4020488 L0,47.4020488 Z" id="path4563"></path>
                                                </g>
                                                <g id="g4565" transform="translate(333.041166, 428.435419)" fill="#ED6C18">
                                                    <path d="M0,47.4020488 C0,55.3122657 6.39927659,61.7263554 14.2917177,61.7263554 C22.1841588,61.7263554 28.5834354,55.3122657 28.5834354,47.4020488 L28.5834354,1.73313741 L0,1.73313741 L0,47.4020488 L0,47.4020488 Z" id="path4567"></path>
                                                </g>
                                                <g id="g4569" transform="translate(428.183596, 332.251329)" fill="#ED6C18">
                                                    <path d="M47.4020488,29.6262805 C55.3122657,29.6262805 61.7263554,23.2270039 61.7263554,15.3345628 C61.7263554,7.44212166 55.3122657,1.04284507 47.4020488,1.04284507 L1.73313741,1.04284507 L1.73313741,29.6262805 L47.4020488,29.6262805 L47.4020488,29.6262805 Z" id="path4571"></path>
                                                </g>
                                                <g id="g4573" transform="translate(428.183596, 264.706669)" fill="#ED6C18">
                                                    <path d="M47.4020488,29.6262805 C55.3122657,29.6262805 61.7263554,23.2270039 61.7263554,15.3345628 C61.7263554,7.44212166 55.3122657,1.04284507 47.4020488,1.04284507 L1.73313741,1.04284507 L1.73313741,29.6262805 L47.4020488,29.6262805 L47.4020488,29.6262805 Z" id="path4575"></path>
                                                </g>
                                                <g id="g4577" transform="translate(428.183596, 197.162304)" fill="#ED6C18">
                                                    <path d="M47.4020488,29.6262805 C55.3122657,29.6262805 61.7263554,23.2270039 61.7263554,15.3345628 C61.7263554,7.44212166 55.3122657,1.04284507 47.4020488,1.04284507 L1.73313741,1.04284507 L1.73313741,29.6262805 L47.4020488,29.6262805 L47.4020488,29.6262805 Z" id="path4579"></path>
                                                </g>
                                                <g id="g4581" transform="translate(428.183596, 129.623569)" fill="#ED6C18">
                                                    <path d="M47.4020488,29.6262805 C55.3122657,29.6262805 61.7263554,23.2270039 61.7263554,15.3345628 C61.7263554,7.44212166 55.3122657,1.04284507 47.4020488,1.04284507 L1.73313741,1.04284507 L1.73313741,29.6262805 L47.4020488,29.6262805 L47.4020488,29.6262805 Z" id="path4583"></path>
                                                </g>
                                            </g>
                                        </g>
                                    </g>
                                </g>
                            </g>
                        </g>
                    </g>
                    <polygon id="path4585" fill="#ED6C18" transform="translate(347.653193, 350.423367) scale(1, -1) translate(-347.653193, -350.423367) " points="210.531014 207.760905 484.775373 207.760905 484.775373 493.085829 210.531014 493.085829"></polygon>
                </g>
                <path d="M443.677834,189.515462 L515.452121,244.305006 L515.43553,381.536703 C514.097512,398.303981 504.388838,410.941867 483.743539,414.705865 L434.785258,414.618669 L261.327035,317.466435 L257.736662,315.198392 L258.273822,312.512629 L262.571031,312.512629 L262.571031,306.603952 L263.645327,281.357789 L366.778605,201.32208 L385.041785,184.670356 L443.677834,189.515462 Z" id="path4833" fill-opacity="0.58849553" fill="#800000" opacity="0.68049795" transform="translate(386.594391, 299.688111) scale(1, -1) translate(-386.594391, -299.688111) "></path>
                <path d="M406.083388,212.902379 L511.596936,278.714156 C514.608578,273.856434 515.652679,266.897552 515.718259,260.986567 L423.435169,203.640452 L406.083388,212.902379 Z" id="path4839" fill="#800000" opacity="0.24324323" transform="translate(460.900824, 241.177304) scale(1, -1) translate(-460.900824, -241.177304) "></path>
                <polygon id="path4835" fill="#800000" opacity="0.24324323" transform="translate(358.721809, 231.805479) scale(1, -1) translate(-358.721809, -231.805479) " points="267.405898 194.473387 420.494346 279.343468 450.03772 277.732009 282.983325 184.267491"></polygon>
                <path d="M310.047655,445.708351 C304.876714,445.708351 300.715377,441.547014 300.715377,436.376073 L300.715377,427.710386 C300.715377,422.539445 304.876714,418.378108 310.047655,418.378108 L365.893194,418.378108 C371.064076,418.378108 375.225472,422.539445 375.225472,427.710386 L375.225472,436.376073 C375.225472,441.547014 371.064105,445.708351 365.893194,445.708351 L310.047655,445.708351 L310.047655,445.708351 Z M263.386263,416.082071 C243.053332,416.082071 226.57561,388.071934 226.57561,353.570619 C226.57561,321.03329 241.181633,294.366941 259.905175,291.429496 C259.953762,291.420608 260.004719,291.362837 260.053307,291.35543 C260.349866,291.191597 260.682095,291.133233 261.016161,291.133233 L263.386263,291.133233 L423.294112,291.133233 C424.657662,290.87341 426.037328,290.762904 427.441791,290.762904 C447.774693,290.762904 464.252445,318.699006 464.252445,353.200291 C464.252445,386.456413 448.905084,413.570503 429.589697,415.489545 C429.254505,415.707298 428.86646,415.785808 428.478711,415.785808 L266.645154,415.785808 C265.562136,415.948456 264.494197,416.082071 263.386263,416.082071 L263.386263,416.082071 Z M389.816415,413.786034 L406.555264,413.786034 C409.174108,413.786034 411.221403,411.664704 411.221403,409.045829 L411.221403,297.058489 C411.221403,294.439615 409.174108,292.318284 406.555264,292.318284 L389.816415,292.318284 C387.197541,292.318284 385.150276,294.439615 385.150276,297.058489 L385.150276,409.045829 C385.150276,411.664704 387.197541,413.786034 389.816415,413.786034 L389.816415,413.786034 Z M389.816415,410.823406 C388.787583,410.823406 388.112904,410.074631 388.112904,409.045829 L388.112904,398.898828 C388.248592,399.592765 388.812943,400.157945 389.520152,400.157945 L406.777461,400.157945 C407.585666,400.157945 408.184709,399.444692 408.184709,398.602565 C408.184709,397.760379 407.585666,397.121251 406.777461,397.121251 L389.520152,397.121251 C388.812943,397.121251 388.248474,397.612337 388.112904,398.306303 L388.112904,385.93733 C388.248592,386.631296 388.812943,387.122382 389.520152,387.122382 L406.777461,387.122382 C407.585666,387.122382 408.184709,386.483254 408.184709,385.641068 C408.184709,384.798881 407.585666,384.085688 406.777461,384.085688 L389.520152,384.085688 C388.812943,384.085688 388.248474,384.650868 388.112904,385.344805 L388.112904,372.901767 C388.248592,373.595733 388.812943,374.086818 389.520152,374.086818 L406.777461,374.086818 C407.585666,374.086818 408.184709,373.447691 408.184709,372.605504 C408.184709,371.763348 407.585666,371.050125 406.777461,371.050125 L389.520152,371.050125 C388.812943,371.050125 388.248474,371.615305 388.112904,372.309241 L388.112904,359.866204 C388.248592,360.56017 388.812943,361.051255 389.520152,361.051255 L406.777461,361.051255 C407.585666,361.051255 408.184709,360.412127 408.184709,359.569941 C408.184709,358.727784 407.585666,358.014561 406.777461,358.014561 L389.520152,358.014561 C388.812943,358.014561 388.248474,358.579742 388.112904,359.273678 L388.112904,346.83064 C388.248592,347.524577 388.812943,348.015691 389.520152,348.015691 L406.777461,348.015691 C407.585666,348.015691 408.184709,347.376534 408.184709,346.534377 C408.184709,345.692191 407.585666,344.978998 406.777461,344.978998 L389.520152,344.978998 C388.812943,344.978998 388.248474,345.544149 388.112904,346.238115 L388.112904,333.795077 C388.248592,334.489013 388.812943,334.980128 389.520152,334.980128 L406.777461,334.980128 C407.585666,334.980128 408.184709,334.340941 408.184709,333.498814 C408.184709,332.656628 407.585666,331.943434 406.777461,331.943434 L389.520152,331.943434 C388.812943,331.943434 388.248474,332.508585 388.112904,333.202551 L388.112904,320.759513 C388.248592,321.453479 388.812943,321.944565 389.520152,321.944565 L406.777461,321.944565 C407.585666,321.944565 408.184709,321.305437 408.184709,320.463251 C408.184709,319.621094 407.585666,318.907871 406.777461,318.907871 L389.520152,318.907871 C388.812943,318.907871 388.248474,319.473051 388.112904,320.166988 L388.112904,307.72395 C388.248592,308.417916 388.812943,308.909001 389.520152,308.909001 L406.777461,308.909001 C407.585666,308.909001 408.184709,308.269873 408.184709,307.427687 C408.184709,306.58553 407.585666,305.872307 406.777461,305.872307 L389.520152,305.872307 C388.812943,305.872307 388.248474,306.437458 388.112904,307.131424 L388.112904,297.058489 C388.112904,296.029687 388.787583,295.280912 389.816415,295.280912 L406.555264,295.280912 C407.584066,295.280912 408.258775,296.029687 408.258775,297.058489 L408.258775,409.045829 C408.258775,410.074631 407.584066,410.823406 406.555264,410.823406 L389.816415,410.823406 L389.816415,410.823406 Z M388.112904,307.131424 L388.112904,307.72395 C388.092166,307.624702 388.038838,307.53286 388.038838,307.427687 C388.038838,307.322514 388.093647,307.230672 388.112904,307.131424 L388.112904,307.131424 Z M388.112904,320.166988 L388.112904,320.759513 C388.092166,320.660265 388.038838,320.568424 388.038838,320.463251 C388.038838,320.358077 388.093647,320.266236 388.112904,320.166988 L388.112904,320.166988 Z M388.112904,333.202551 L388.112904,333.795077 C388.092166,333.695829 388.038838,333.603987 388.038838,333.498814 C388.038838,333.393641 388.093647,333.301799 388.112904,333.202551 L388.112904,333.202551 Z M388.112904,346.238115 L388.112904,346.83064 C388.092166,346.731392 388.038838,346.639551 388.038838,346.534377 C388.038838,346.429204 388.093647,346.337363 388.112904,346.238115 L388.112904,346.238115 Z M388.112904,359.273678 L388.112904,359.866204 C388.092166,359.766956 388.038838,359.675114 388.038838,359.569941 C388.038838,359.464768 388.093647,359.372926 388.112904,359.273678 L388.112904,359.273678 Z M388.112904,372.309241 L388.112904,372.901767 C388.092166,372.802519 388.038838,372.710678 388.038838,372.605504 C388.038838,372.500331 388.093647,372.408489 388.112904,372.309241 L388.112904,372.309241 Z M388.112904,385.344805 L388.112904,385.93733 C388.092166,385.838082 388.038838,385.746241 388.038838,385.641068 C388.038838,385.535894 388.093647,385.444053 388.112904,385.344805 L388.112904,385.344805 Z M388.112904,398.306303 L388.112904,398.898828 C388.092166,398.79958 388.038838,398.707739 388.038838,398.602565 C388.038838,398.497392 388.093647,398.405551 388.112904,398.306303 L388.112904,398.306303 Z M259.31265,287.652145 C257.627299,287.652145 256.275956,286.300772 256.275956,284.615451 L256.275956,282.319414 C256.275956,280.634094 257.627299,279.282721 259.31265,279.282721 L429.589697,279.282721 C431.274988,279.282721 432.62639,280.634094 432.62639,282.319414 L432.62639,284.615451 C432.62639,286.300772 431.274988,287.652145 429.589697,287.652145 L259.31265,287.652145 L259.31265,287.652145 Z M267.459877,278.542064 C266.964199,278.542064 266.571088,278.148953 266.571088,277.653275 L266.571088,269.876377 C266.571088,269.38067 266.964199,268.987588 267.459877,268.987588 L283.08774,268.987588 C283.583417,268.987588 284.050594,269.38067 284.050594,269.876377 L284.050594,277.653275 C284.050594,278.148953 283.583417,278.542064 283.08774,278.542064 L267.459877,278.542064 L267.459877,278.542064 Z M407.295921,278.542064 C406.800214,278.542064 406.407132,278.148953 406.407132,277.653275 L406.407132,269.876377 C406.407132,269.38067 406.800214,268.987588 407.295921,268.987588 L422.997849,268.987588 C423.493556,268.987588 423.886638,269.38067 423.886638,269.876377 L423.886638,277.653275 C423.886638,278.148953 423.493556,278.542064 422.997849,278.542064 L407.295921,278.542064 L407.295921,278.542064 Z" id="rect4587" fill="#FFFFFF"></path>
            </g>
        </g>
    </g>
</svg>
